<?xml version="1.0" encoding="utf-8"?>
<!-- Generator: Adobe Illustrator 16.0.3, SVG Export Plug-In . SVG Version: 6.00 Build 0)  -->
<!DOCTYPE svg PUBLIC "-//W3C//DTD SVG 1.1//EN" "http://www.w3.org/Graphics/SVG/1.1/DTD/svg11.dtd">
<svg version="1.1" id="Layer_1" xmlns="http://www.w3.org/2000/svg" xmlns:xlink="http://www.w3.org/1999/xlink" x="0px" y="0px"
	 width="260px" height="60px" viewBox="0 0 260 60" enable-background="new 0 0 260 60" xml:space="preserve">
<path fill-rule="evenodd" clip-rule="evenodd" fill="#2257A0" d="M19.672,37.1c-2.741,0-5.338-0.623-7.652-1.736
	c1.291,0.332,2.638,0.529,4.034,0.529c8.853,0,16.055-7.129,16.055-15.895c0-8.762-7.202-15.893-16.055-15.893
	c-2.404,0-4.678,0.541-6.729,1.482c2.906-2.1,6.482-3.342,10.347-3.342c9.707,0,17.605,7.816,17.605,17.428
	C37.277,29.283,29.379,37.1,19.672,37.1L19.672,37.1z M12.216,31.986c-1.554,0-3.036-0.301-4.405-0.828
	c2.316,1.682,5.159,2.686,8.242,2.686c7.71,0,13.985-6.211,13.985-13.846c0-7.633-6.275-13.844-13.985-13.844
	c-2.795,0-5.395,0.824-7.582,2.229c1.182-0.379,2.438-0.588,3.745-0.588c6.737,0,12.216,5.426,12.216,12.096
	C24.433,26.559,18.954,31.986,12.216,31.986L12.216,31.986z M5.438,27.346c1.799,1.604,4.171,2.59,6.778,2.59
	c5.595,0,10.147-4.508,10.147-10.045c0-5.539-4.553-10.045-10.147-10.045c-3.079,0-5.837,1.369-7.699,3.52
	c1.24-0.773,2.702-1.227,4.273-1.227c4.438,0,8.049,3.574,8.049,7.969c0,4.396-3.611,7.969-8.049,7.969
	C7.592,28.076,6.459,27.811,5.438,27.346L5.438,27.346z M19.672,0C8.825,0,0,8.824,0,19.674c0,0.047,0.003,0.098,0.003,0.146
	C0.003,19.844,0,19.869,0,19.893c0,0.02,0.003,0.037,0.003,0.053C0.003,19.967,0,19.982,0,20.002c0,0.111,0.013,0.219,0.015,0.33
	c0.009,0.234,0.021,0.469,0.036,0.699c0.026,0.383,0.062,0.764,0.112,1.139c0.043,0.33,0.092,0.656,0.15,0.982
	c0.007,0.035,0.012,0.072,0.019,0.109c1.693,9.141,9.717,16.084,19.34,16.084c10.849,0,19.673-8.824,19.673-19.672
	C39.346,8.824,30.521,0,19.672,0z"/>
<g>
	<path fill-rule="evenodd" clip-rule="evenodd" d="M66.434,9.9v3.977h-1.7V24.01c0,5.742-3.624,8.02-8.788,8.02
		c-5.162,0-8.786-2.277-8.786-8.02V13.877h-1.732V9.9h8.563v3.977h-1.732V24.01c0,2.277,0.834,4.041,3.719,4.041
		c2.791,0,3.658-1.764,3.658-4.041V13.877h-1.732V9.9H66.434z"/>
	<path fill-rule="evenodd" clip-rule="evenodd" d="M79.613,9.9l5.517,17.83h1.73v3.977h-9.074V27.73h1.795l-0.706-2.629h-5.869
		l-0.833,2.629h1.859v3.977h-8.82V27.73h2.022l4.392-13.854h-2.084V9.9H79.613L79.613,9.9z M76.086,14.422l-2.053,6.99h3.978
		l-1.892-6.99H76.086z"/>
	<polygon fill-rule="evenodd" clip-rule="evenodd" points="87.664,9.26 94.206,9.26 94.206,27.73 95.937,27.73 95.937,31.707 
		87.664,31.707 87.664,27.73 89.395,27.73 89.395,13.236 87.664,13.236 	"/>
	<path fill-rule="evenodd" clip-rule="evenodd" d="M98.535,31.098c-2.052-1.379-1.7-4.201,1.314-5.74v-0.063
		c-1.604-0.803-2.597-2.533-2.597-4.492c0-3.75,2.79-5.449,6.926-5.449c0.834,0,1.731,0.127,2.374,0.318h6.093v2.855h-2.31v0.063
		c0.417,0.514,0.61,1.221,0.61,2.213c0,3.787-2.854,5.42-6.767,5.42c-0.513,0-1.25-0.094-1.892-0.287
		c-0.673,0.994-0.642,1.795,0.385,1.859l5.131,0.225c3.239,0.127,5.164,1.732,5.164,4.459c0,4.135-3.111,5.963-9.749,5.963
		c-4.939,0-7.055-1.346-7.055-4.17c0-1.377,0.705-2.309,2.373-3.109V31.098L98.535,31.098z M103.955,35.172
		c1.924,0,3.943-0.416,3.943-1.764c0-0.674-0.545-1.188-1.635-1.283l-5.291-0.322c-0.385,0.482-0.706,0.771-0.706,1.637
		C100.267,35.045,102.19,35.172,103.955,35.172L103.955,35.172z M106.393,20.803c0-1.635-0.963-2.18-2.214-2.18
		c-1.313,0-2.245,0.545-2.245,2.18c0,1.637,0.962,2.15,2.245,2.15C105.429,22.953,106.393,22.406,106.393,20.803z"/>
</g>
<g>
	<path d="M50.49,54.049h-2.573v1.715h2.222v0.663h-2.222v2.261h-0.741v-5.302h3.314V54.049z"/>
	<path d="M53.657,57.347h-2.027l-0.452,1.341h-0.78l1.825-5.341h0.912l1.786,5.341h-0.827L53.657,57.347z M52.651,54.275
		l-0.866,2.447H53.5l-0.834-2.447H52.651z"/>
	<path d="M57.463,53.309c0.601,0,1.17,0.077,1.833,0.271l-0.171,0.625c-0.803-0.195-1.178-0.234-1.606-0.234
		c-1.224,0-1.536,0.896-1.536,2.027c0,1.209,0.312,2.105,1.536,2.105c0.429,0,0.803-0.039,1.606-0.234l0.171,0.624
		c-0.663,0.194-1.232,0.272-1.833,0.272c-1.816,0-2.261-1.247-2.261-2.768C55.202,54.517,55.647,53.309,57.463,53.309z"/>
	<path d="M63.352,56.816v-3.431h0.741v3.431c0,1.365-0.725,1.949-1.988,1.949c-1.271,0-1.988-0.584-1.988-1.949v-3.431h0.741v3.431
		c0,0.585,0.117,1.326,1.263,1.326C63.212,58.143,63.352,57.401,63.352,56.816z"/>
	<path d="M65.849,53.386v4.64h2.612v0.662h-3.353v-5.302H65.849z"/>
	<path d="M69.32,58.688v-5.302h1.887c1.739,0,2.246,1.131,2.246,2.612c0,1.505-0.507,2.689-2.246,2.689H69.32z M71.207,58.025
		c1.193,0,1.466-0.896,1.466-2.027s-0.273-1.949-1.466-1.949h-1.146v3.977H71.207z"/>
	<path d="M76.995,57.347h-2.027l-0.452,1.341h-0.78l1.825-5.341h0.912l1.786,5.341h-0.827L76.995,57.347z M75.989,54.275
		l-0.866,2.447h1.715l-0.834-2.447H75.989z"/>
	<path d="M78.914,58.688v-5.302h1.887c1.739,0,2.246,1.131,2.246,2.612c0,1.505-0.507,2.689-2.246,2.689H78.914z M80.801,58.025
		c1.193,0,1.466-0.896,1.466-2.027s-0.273-1.949-1.466-1.949h-1.146v3.977H80.801z"/>
	<path d="M87.282,54.049h-2.651v1.559h2.3v0.664h-2.3v1.754h2.69v0.662h-3.431v-5.302h3.392V54.049z"/>
	<path d="M89.663,58.688v-5.302h1.887c1.739,0,2.246,1.131,2.246,2.612c0,1.505-0.507,2.689-2.246,2.689H89.663z M91.549,58.025
		c1.193,0,1.466-0.896,1.466-2.027s-0.273-1.949-1.466-1.949h-1.146v3.977H91.549z"/>
	<path d="M98.03,54.049h-2.651v1.559h2.3v0.664h-2.3v1.754h2.69v0.662h-3.431v-5.302h3.392V54.049z"/>
	<path d="M102.594,53.309c0.601,0,1.17,0.077,1.833,0.271l-0.171,0.625c-0.803-0.195-1.178-0.234-1.606-0.234
		c-1.224,0-1.536,0.896-1.536,2.027c0,1.209,0.312,2.105,1.536,2.105c0.429,0,0.803-0.039,1.606-0.234l0.171,0.624
		c-0.663,0.194-1.232,0.272-1.833,0.272c-1.817,0-2.261-1.247-2.261-2.768C100.333,54.517,100.777,53.309,102.594,53.309z"/>
	<path d="M105.091,58.688v-5.302h0.741v5.302H105.091z"/>
	<path d="M110.237,54.049h-2.651v1.559h2.3v0.664h-2.3v1.754h2.69v0.662h-3.431v-5.302h3.392V54.049z M107.93,52.996h-0.39
		l0.834-0.936h0.429l0.842,0.936h-0.39l-0.663-0.624L107.93,52.996z"/>
	<path d="M111.214,58.688v-5.302h0.741l2.573,3.938h0.016v-3.938h0.725v5.302h-0.741l-2.581-3.852h-0.016v3.852H111.214z"/>
	<path d="M118.373,53.309c0.601,0,1.17,0.077,1.833,0.271l-0.171,0.625c-0.803-0.195-1.178-0.234-1.606-0.234
		c-1.224,0-1.536,0.896-1.536,2.027c0,1.209,0.312,2.105,1.536,2.105c0.429,0,0.803-0.039,1.606-0.234l0.171,0.624
		c-0.663,0.194-1.232,0.272-1.833,0.272c-1.817,0-2.261-1.247-2.261-2.768C116.112,54.517,116.556,53.309,118.373,53.309z"/>
	<path d="M120.87,58.688v-5.302h0.741v5.302H120.87z"/>
	<path d="M125.526,57.347h-2.027l-0.452,1.341h-0.78l1.825-5.341h0.912l1.786,5.341h-0.827L125.526,57.347z M124.52,54.275
		l-0.866,2.447h1.715l-0.834-2.447H124.52z"/>
	<path d="M127.18,58.493l0.125-0.624c0.811,0.195,1.356,0.234,1.786,0.234c0.78,0,1.13-0.406,1.13-0.834
		c0-0.648-0.756-0.804-1.326-0.959c-0.865-0.227-1.637-0.703-1.637-1.6c0-1.006,0.819-1.402,1.833-1.402
		c0.584,0,1.13,0.077,1.793,0.271l-0.171,0.625c-0.803-0.195-1.193-0.234-1.622-0.234c-0.78,0-1.053,0.352-1.053,0.764
		c0,0.601,0.772,0.812,1.364,0.951c0.858,0.195,1.599,0.609,1.599,1.521c0,1.053-0.819,1.559-1.91,1.559
		C128.506,58.766,127.843,58.688,127.18,58.493z"/>
	<path d="M136.733,54.049h-2.651v1.559h2.3v0.664h-2.3v1.754h2.69v0.662h-3.431v-5.302h3.392V54.049z"/>
	<path d="M141.157,54.049v4.639h-0.741v-4.639h-1.458v-0.663h3.665v0.663H141.157z"/>
	<path d="M146.874,54.049h-2.651v1.559h2.3v0.664h-2.3v1.754h2.69v0.662h-3.431v-5.302h3.392V54.049z"/>
	<path d="M150.033,53.309c0.601,0,1.17,0.077,1.833,0.271l-0.171,0.625c-0.803-0.195-1.178-0.234-1.606-0.234
		c-1.224,0-1.536,0.896-1.536,2.027c0,1.209,0.312,2.105,1.536,2.105c0.429,0,0.803-0.039,1.606-0.234l0.171,0.624
		c-0.663,0.194-1.232,0.272-1.833,0.272c-1.817,0-2.261-1.247-2.261-2.768C147.772,54.517,148.216,53.309,150.033,53.309z"/>
	<path d="M152.53,58.688v-5.302h0.741l2.573,3.938h0.016v-3.938h0.725v5.302h-0.741l-2.581-3.852h-0.016v3.852H152.53z"/>
	<path d="M157.428,55.998c0-1.481,0.444-2.689,2.261-2.689c1.809,0,2.261,1.208,2.261,2.689c0,1.505-0.452,2.768-2.261,2.768
		C157.873,58.766,157.428,57.503,157.428,55.998z M158.208,55.998c0,1.131,0.21,2.145,1.481,2.145c1.263,0,1.481-1.014,1.481-2.145
		s-0.218-2.066-1.481-2.066C158.418,53.932,158.208,54.867,158.208,55.998z"/>
	<path d="M163.535,53.386v4.64h2.612v0.662h-3.353v-5.302H163.535z"/>
	<path d="M166.257,55.998c0-1.481,0.444-2.689,2.261-2.689c1.809,0,2.261,1.208,2.261,2.689c0,1.505-0.452,2.768-2.261,2.768
		C166.702,58.766,166.257,57.503,166.257,55.998z M167.037,55.998c0,1.131,0.21,2.145,1.481,2.145c1.263,0,1.481-1.014,1.481-2.145
		s-0.218-2.066-1.481-2.066C167.248,53.932,167.037,54.867,167.037,55.998z"/>
	<path d="M171.639,55.998c0-1.481,0.444-2.689,2.261-2.689c0.601,0,1.131,0.077,1.793,0.271l-0.171,0.625
		c-0.803-0.195-1.139-0.234-1.567-0.234c-1.224,0-1.536,0.896-1.536,2.027c0,1.209,0.312,2.105,1.536,2.105
		c0.39,0,0.709-0.102,0.998-0.258v-1.225h-1.014v-0.662h1.754v2.386c-0.538,0.226-1.045,0.421-1.793,0.421
		C172.083,58.766,171.639,57.519,171.639,55.998z"/>
	<path d="M176.709,58.688v-5.302h0.741v5.302H176.709z"/>
	<path d="M181.365,57.347h-2.027l-0.452,1.341h-0.78l1.825-5.341h0.912l1.786,5.341h-0.827L181.365,57.347z M180.359,54.275
		l-0.866,2.447h1.715l-0.834-2.447H180.359z"/>
</g>
<g>
	<path d="M52.749,42.482v0.725h-0.628v3.525c0,1.69-0.898,2.415-2.463,2.415c-1.575,0-2.463-0.725-2.463-2.415v-3.525h-0.627v-0.725
		h2.173v0.725h-0.627v3.525c0,0.725,0.145,1.69,1.564,1.69c1.353,0,1.526-0.966,1.526-1.69v-3.525h-0.628v-0.725H52.749z"/>
	<path d="M59.411,42.482v0.725h-0.627v5.844h-0.947l-3.216-4.896h-0.02v4.172h0.657v0.725h-2.125v-0.725h0.627v-5.119h-0.627v-0.725
		h1.516l3.265,5.023h0.02v-4.299h-0.647v-0.725H59.411z"/>
	<path d="M60.424,48.326v-5.119h-0.627v-0.725h2.173v0.725h-0.627v5.119h0.627v0.725h-2.173v-0.725H60.424z"/>
	<path d="M68.633,42.482v0.725h-0.512L66.103,49.1h-1.179l-2.086-5.893h-0.483v-0.725h2.366v0.725h-0.869l1.709,4.945h0.01
		l1.613-4.945h-0.869v-0.725H68.633z"/>
	<path d="M73.896,42.482v1.4h-0.724v-0.676h-2.608v2.076h2.849v0.725h-2.849v2.318h2.608V47.65h0.724v1.4h-4.877v-0.725h0.627
		v-5.119h-0.627v-0.725H73.896z"/>
	<path d="M77.855,42.482c1.304,0,2.028,0.803,2.028,1.961c0,0.928-0.521,1.652-1.41,1.807l1.468,2.076h0.473v0.725h-2.27v-0.725
		h0.637l-1.313-1.932h-1.4v1.932h0.627v0.725h-2.173v-0.725h0.627v-5.119h-0.627v-0.725H77.855z M76.068,45.67h1.642
		c0.725,0,1.227-0.435,1.227-1.227c0-0.754-0.454-1.236-1.179-1.236h-1.69V45.67z"/>
	<path d="M81.766,47.408v0.754c0.715,0.164,1.198,0.213,1.642,0.213c1.014,0,1.4-0.531,1.4-1.063c0-0.793-0.937-1.015-1.642-1.207
		c-1.072-0.281-2.077-0.87-2.077-1.98c0-1.246,1.014-1.738,2.27-1.738c0.724,0,1.4,0.096,2.221,0.338v1.4h-0.724v-0.783
		c-0.676-0.145-1.072-0.184-1.497-0.184c-0.966,0-1.304,0.436-1.304,0.947c0,0.744,0.957,1.053,1.69,1.227
		c1.063,0.242,2.028,0.754,2.028,1.884c0,1.304-1.014,1.932-2.366,1.932c-0.725,0-1.545-0.097-2.367-0.339v-1.4H81.766z"/>
	<path d="M87.028,48.326v-5.119H86.4v-0.725h2.173v0.725h-0.627v5.119h0.627v0.725H86.4v-0.725H87.028z"/>
	<path d="M91.924,42.482c2.154,0,2.782,1.4,2.782,3.236c0,1.863-0.627,3.332-2.782,3.332h-2.965v-0.725h0.627v-5.119h-0.627v-0.725
		H91.924z M91.924,48.326c1.478,0,1.816-1.207,1.816-2.607s-0.338-2.512-1.816-2.512h-1.419v5.119H91.924z"/>
	<path d="M98.674,42.482l1.97,5.844h0.531v0.725h-2.27v-0.725h0.744l-0.425-1.275h-2.463l-0.454,1.275h0.714v0.725h-2.221v-0.725
		h0.608l1.806-5.119h-0.705v-0.725H98.674z M98.027,43.304l-1.072,3.071h2.105l-1.024-3.071H98.027z"/>
	<path d="M104.526,42.482c2.154,0,2.782,1.4,2.782,3.236c0,1.863-0.627,3.332-2.782,3.332h-2.965v-0.725h0.627v-5.119h-0.627v-0.725
		H104.526z M104.526,48.326c1.478,0,1.816-1.207,1.816-2.607s-0.338-2.512-1.816-2.512h-1.419v5.119H104.526z"/>
	<path d="M112.667,42.482v1.4h-0.724v-0.676h-2.608v2.076h2.849v0.725h-2.849v2.318h2.608V47.65h0.724v1.4h-4.877v-0.725h0.627
		v-5.119h-0.627v-0.725H112.667z"/>
	<path d="M117.997,42.482c2.154,0,2.782,1.4,2.782,3.236c0,1.863-0.627,3.332-2.782,3.332h-2.965v-0.725h0.627v-5.119h-0.627v-0.725
		H117.997z M117.997,48.326c1.478,0,1.816-1.207,1.816-2.607s-0.338-2.512-1.816-2.512h-1.419v5.119H117.997z"/>
	<path d="M121.646,45.719c0-1.836,0.551-3.332,2.801-3.332c2.241,0,2.801,1.496,2.801,3.332c0,1.863-0.56,3.429-2.801,3.429
		C122.197,49.147,121.646,47.582,121.646,45.719z M122.612,45.719c0,1.4,0.261,2.704,1.835,2.704c1.564,0,1.835-1.304,1.835-2.704
		s-0.271-2.607-1.835-2.607C122.873,43.111,122.612,44.318,122.612,45.719z"/>
	<path d="M133.486,42.482l1.97,5.844h0.531v0.725h-2.27v-0.725h0.744l-0.425-1.275h-2.463l-0.454,1.275h0.714v0.725h-2.221v-0.725
		h0.608l1.806-5.119h-0.705v-0.725H133.486z M132.839,43.304l-1.072,3.071h2.105l-1.024-3.071H132.839z"/>
	<path d="M141.202,47.65v1.4h-4.829v-0.725H137v-5.119h-0.627v-0.725h2.173v0.725h-0.627v5.119h2.56V47.65H141.202z"/>
	<path d="M144.504,48.375c0.483,0,0.927-0.126,1.285-0.318v-1.565h-1.255v-0.725h2.173v2.859c-0.667,0.28-1.342,0.521-2.27,0.521
		c-2.154,0-2.801-1.565-2.801-3.429c0-1.836,0.551-3.332,2.801-3.332c0.744,0,1.449,0.096,2.27,0.338v1.352h-0.724v-0.782
		c-0.657-0.145-1.043-0.183-1.478-0.183c-1.516,0-1.903,1.207-1.903,2.607C142.601,47.168,143.084,48.375,144.504,48.375z"/>
	<path d="M151.254,42.482l1.97,5.844h0.531v0.725h-2.27v-0.725h0.744l-0.425-1.275h-2.463l-0.454,1.275h0.715v0.725h-2.221v-0.725
		h0.608l1.806-5.119h-0.705v-0.725H151.254z M150.607,43.304l-1.072,3.071h2.105l-1.024-3.071H150.607z"/>
	<path d="M157.473,42.482c1.304,0,2.028,0.803,2.028,1.961c0,0.928-0.521,1.652-1.41,1.807l1.468,2.076h0.473v0.725h-2.27v-0.725
		h0.637l-1.313-1.932h-1.4v1.932h0.627v0.725h-2.173v-0.725h0.627v-5.119h-0.627v-0.725H157.473z M155.686,45.67h1.642
		c0.725,0,1.227-0.435,1.227-1.227c0-0.754-0.454-1.236-1.179-1.236h-1.69V45.67z"/>
	<path d="M166.019,42.482v0.725h-0.512l-2.019,5.893h-1.179l-2.086-5.893h-0.483v-0.725h2.366v0.725h-0.869l1.709,4.945h0.01
		l1.613-4.945h-0.869v-0.725H166.019z"/>
	<path d="M171.282,42.482v1.4h-0.724v-0.676h-2.608v2.076h2.849v0.725h-2.849v2.318h2.608V47.65h0.724v1.4h-4.877v-0.725h0.627
		v-5.119h-0.627v-0.725H171.282z"/>
</g>
<g>
	<g>
		<path fill="#2257A0" d="M127.221,18.117h-6.241v3.301h5.341v2.439h-5.341v5.402h-2.761V15.656h9.002V18.117z"/>
		<path fill="#2257A0" d="M134.22,15.457c1.621,0,3.041,0.199,4.901,0.76l-0.62,2.301c-2.141-0.5-3.001-0.601-4.061-0.601
			c-2.521,0-3.381,1.74-3.381,4.44c0,2.9,0.86,4.662,3.381,4.662c1.06,0,1.92-0.101,4.061-0.602l0.62,2.301
			c-1.861,0.541-3.281,0.74-4.901,0.74c-4.781,0-6.061-3.2-6.061-7.102C128.159,18.518,129.439,15.457,134.22,15.457z"/>
		<path fill="#2257A0" d="M146.7,18.117V29.26h-2.761V18.117h-3.581v-2.461h9.902v2.461H146.7z"/>
	</g>
</g>
</svg>
